<svg xmlns="http://www.w3.org/2000/svg" xmlns:xlink="http://www.w3.org/1999/xlink" viewBox="0,0,256,256" width="512px" height="512px" fill-rule="nonzero"><g fill="#19bffc" fill-rule="nonzero" stroke="none" stroke-width="1" stroke-linecap="butt" stroke-linejoin="miter" stroke-miterlimit="10" stroke-dasharray="" stroke-dashoffset="0" font-family="none" font-weight="none" font-size="none" text-anchor="none" style="mix-blend-mode: normal"><g transform="scale(2,2)"><path d="M64,1c-34.74,0 -63,28.26 -63,63c0,34.74 28.26,63 63,63c34.74,0 63,-28.26 63,-63c0,-34.74 -28.26,-63 -63,-63zM7,64c0,-31.43 25.57,-57 57,-57c14.64,0 28,5.55 38.11,14.65l-80.45,80.45c-9.11,-10.1 -14.66,-23.46 -14.66,-38.1zM64,121c-14.64,0 -28,-5.55 -38.11,-14.65l80.45,-80.45c9.11,10.1 14.66,23.46 14.66,38.1c0,31.43 -25.57,57 -57,57z"></path></g></g></svg>